<?xml version="1.0" encoding="UTF-8"?>
<!DOCTYPE svg PUBLIC "-//W3C//DTD SVG 1.1//EN" "http://www.w3.org/Graphics/SVG/1.1/DTD/svg11.dtd">
<!-- Creator: CorelDRAW 2020 (64 Bit) -->
<svg xmlns="http://www.w3.org/2000/svg" xml:space="preserve" width="144px" height="144px" version="1.1" style="shape-rendering:geometricPrecision; text-rendering:geometricPrecision; image-rendering:optimizeQuality; fill-rule:evenodd; clip-rule:evenodd"
viewBox="0 0 144 144"
 xmlns:xlink="http://www.w3.org/1999/xlink"
 xmlns:xodm="http://www.corel.com/coreldraw/odm/2003">
 <defs>
  <style type="text/css">
   <![CDATA[
    .fil0 {fill:white}
   ]]>
  </style>
 </defs>
 <g id="Camada_x0020_1">
  <metadata id="CorelCorpID_0Corel-Layer"/>
  <path class="fil0" d="M82.677 9.541c-9.795,1.989 -18.501,11.804 -15.831,24.116 2.125,9.794 11.979,18.516 24.47,15.638 9.535,-2.197 17.85,-11.687 15.428,-23.871 -1.956,-9.837 -11.654,-18.402 -24.067,-15.883zm1.324 15.221c0,-1.267 1.213,-1.968 3.073,-1.968 1.428,0 3.476,0.513 5.525,1.752l1.321 -2.803c-1.483,-0.997 -3.45,-1.698 -5.499,-1.886l0 -3.54 -2.372 0.027 0 3.539c-3.396,0.378 -5.606,2.292 -5.606,5.175 0,6.712 10.188,4.367 10.188,8.572 0,1.456 -1.32,2.291 -3.531,2.291 -2.021,0 -4.447,-0.97 -6.388,-2.749l-1.374 2.749c1.725,1.59 4.123,2.722 6.711,2.938l0 3.774 2.372 0 0 -3.801c3.423,-0.404 5.741,-2.372 5.741,-5.364 0.027,-6.792 -10.161,-4.582 -10.161,-8.706zm38.604 62.422c1.813,6.268 -14.787,24.372 -17.6,21.164 -1.075,-1.225 0.586,-2.226 1.363,-2.803 15.054,-11.188 11.387,-19.443 16.237,-18.361zm-88.939 -21.883c3.84,-2.443 6.266,3.28 3.031,5.061 -3.348,1.842 -6.495,-2.857 -3.031,-5.061zm-3.063 -45.437c1.329,4.44 2.931,7.732 3.719,12.949 0.403,2.67 0.68,5.429 0.636,8.183 -0.137,8.509 -0.686,4.816 -6.812,10.216 -4.375,3.856 -8.705,8.591 -9.833,14.9 -15.28,1.622 -18.313,4.884 -18.313,17.6 0,6.428 -0.04,10.525 4.447,13.5 3.717,2.465 9.398,2.013 13.866,1.169 1.62,1.368 4.502,9.03 13.781,14.661 1.82,1.105 4.799,2.181 6.27,3.198 -1.093,3.953 -6.284,12.534 -3.984,17.275 1.6,0.77 19.442,1.515 21.552,1.049 1.761,-2.264 3.663,-8.987 4.272,-12.52 4.851,1.726 7.441,3.276 13.35,3.557 7.555,0.36 9.017,-1.32 14.124,-2.756 1.154,1.396 2.194,3.37 3.236,5.047 5.447,8.764 2.774,7.025 17.237,6.555 12.273,-0.4 4.286,-6.867 1.096,-20.559 2.535,-2.331 8.35,-4.409 13.984,-12.66 3.803,-5.57 5.975,-11.513 6.601,-19.701 1.97,-0.86 3.708,-0.732 5.851,-1.929 4.907,-2.739 8.711,-8.248 8.285,-14.652 -0.702,-10.536 -12.238,-14.573 -16.708,-13.484l1.669 1.217c1.973,0.886 3.175,1.376 4.979,2.835 1.701,1.374 3.664,3.291 4.455,5.717 2.08,6.37 -3.615,11.005 -8.91,11.715 -0.916,-7.966 -5.157,-14.016 -8.878,-18.221 -2.265,-2.559 -11.342,-9.423 -16.438,-10.65 -7.902,9.026 -21.596,11.572 -32.766,1.864 -2.703,-2.35 -4.263,-5.144 -6.064,-9.18l-8.7 0.277c-4.025,-9.472 -16.425,-19.085 -26.004,-17.172z"/>
 </g>
</svg>
